<svg width="698" height="514" viewBox="0 0 698 514" fill="none" xmlns="http://www.w3.org/2000/svg">
<path opacity="0.1" d="M405.544 77.0736C360.798 75.5221 318.177 61.0582 277.483 45.2468C236.789 29.4354 196.472 11.9119 152.8 3.53024C124.707 -1.85973 92.5809 -2.60765 69.9484 12.4496C48.1621 26.9506 41.1265 52.009 37.3462 75.2193C34.4986 92.6996 32.8247 111.07 40.62 127.456C46.0373 138.811 55.6548 148.361 62.3074 159.24C85.4403 197.105 69.1021 243.792 44.0112 280.755C32.2749 298.099 18.6052 314.64 9.53123 333.103C0.457227 351.566 -3.74313 372.712 4.19431 391.54C12.07 410.207 30.8233 424.226 51.1394 434.085C92.4079 454.112 141.039 459.848 188.46 463.093C293.438 470.251 398.972 467.16 504.222 464.069C543.174 462.914 582.293 461.745 620.615 455.719C641.888 452.375 663.854 447.065 679.296 434.239C698.908 417.958 703.77 390.39 690.625 369.955C668.585 335.718 607.637 327.212 592.232 290.466C583.751 270.241 592.46 247.71 604.783 228.951C631.221 188.705 675.535 153.405 677.869 107.405C679.475 75.8126 658.171 44.1713 625.235 29.2253C590.706 13.5561 542.834 15.5279 517.36 41.464C491.145 68.1727 445.052 78.4458 405.544 77.0736Z" fill="#6C63FF"/>
<path d="M410.263 467.227L289.812 465.682L290.164 462.591L295.989 411.597H401.77L409.553 462.591L410.146 466.454L410.263 467.227Z" fill="#D0D2D5"/>
<path opacity="0.1" d="M410.146 466.454H350.038L289.812 465.682L290.164 462.591H409.553L410.146 466.454Z" fill="black"/>
<path d="M429.566 463.364H269.737V467.228H429.566V463.364Z" fill="#D0D2D5"/>
<path d="M582.058 105.308C582.064 103.988 581.811 102.679 581.312 101.456C580.813 100.233 580.078 99.1211 579.149 98.1826C578.221 97.2442 577.116 96.498 575.9 95.9866C574.683 95.4752 573.377 95.2086 572.057 95.2021H125.702C124.381 95.2078 123.075 95.4738 121.858 95.9848C120.64 96.4958 119.535 97.2419 118.606 98.1805C117.677 99.119 116.941 100.232 116.442 101.455C115.942 102.678 115.689 103.987 115.695 105.308V376.043H582.058V105.308Z" fill="#444053"/>
<path d="M115.695 373.354V405.063C115.695 407.719 116.749 410.266 118.626 412.144C120.503 414.022 123.048 415.077 125.702 415.077H572.057C574.71 415.075 577.254 414.019 579.129 412.142C581.005 410.264 582.058 407.718 582.058 405.063V373.354H115.695Z" fill="#D0D2D5"/>
<path opacity="0.1" d="M565.071 112.2H134.998V355.583H565.071V112.2Z" fill="#6C63FF"/>
<path d="M351.193 403.042C352.772 403.043 354.331 402.686 355.752 401.996C357.173 401.307 358.419 400.303 359.396 399.062C359.692 398.683 359.963 398.284 360.205 397.869L354.485 396.929L360.662 396.979C361.258 395.687 361.583 394.286 361.617 392.864C361.651 391.442 361.393 390.027 360.86 388.708L352.564 393.035L360.217 387.41C359.498 386.176 358.533 385.103 357.383 384.257C356.232 383.411 354.92 382.811 353.527 382.494C352.135 382.177 350.693 382.15 349.29 382.414C347.887 382.678 346.553 383.228 345.37 384.029C344.188 384.83 343.184 385.866 342.418 387.072C341.653 388.278 341.143 389.629 340.921 391.04C340.699 392.451 340.769 393.893 341.127 395.276C341.485 396.66 342.123 397.954 343.002 399.08C343.979 400.317 345.224 401.317 346.643 402.003C348.061 402.689 349.617 403.045 351.193 403.042Z" fill="#6C63FF"/>
<path opacity="0.1" d="M361.62 415.077L409.67 463.364L402.301 415.077H361.62Z" fill="black"/>
<path d="M428.313 156.111H149.236C148.349 156.111 147.63 156.831 147.63 157.718V323.868C147.63 324.755 148.349 325.475 149.236 325.475H428.313C429.2 325.475 429.919 324.755 429.919 323.868V157.718C429.919 156.831 429.2 156.111 428.313 156.111Z" fill="white"/>
<path d="M565.195 112.225H135.276V126.442H565.195V112.225Z" fill="white"/>
<path d="M149.001 114.698H137.611C137.345 114.698 137.129 114.913 137.129 115.18V122.869C137.129 123.135 137.345 123.351 137.611 123.351H149.001C149.267 123.351 149.483 123.135 149.483 122.869V115.18C149.483 114.913 149.267 114.698 149.001 114.698Z" fill="#6C63FF"/>
<path opacity="0.3" d="M413.5 114.698H284.5C284.302 114.698 284.142 114.858 284.142 115.056V122.993C284.142 123.191 284.302 123.351 284.5 123.351H413.5C413.698 123.351 413.858 123.191 413.858 122.993V115.056C413.858 114.858 413.698 114.698 413.5 114.698Z" fill="#6C63FF"/>
<path d="M410.01 119.914H409.695L409.578 119.815C409.974 119.345 410.193 118.75 410.195 118.134C410.192 117.629 410.039 117.135 409.755 116.717C409.472 116.298 409.071 115.973 408.603 115.783C408.135 115.592 407.621 115.544 407.126 115.646C406.631 115.747 406.177 115.993 405.821 116.352C405.466 116.711 405.225 117.168 405.128 117.664C405.032 118.16 405.084 118.674 405.279 119.141C405.474 119.607 405.803 120.005 406.224 120.285C406.645 120.564 407.139 120.713 407.644 120.712C408.259 120.708 408.854 120.489 409.324 120.094L409.442 120.193V120.514L411.418 122.492L412.036 121.874L410.01 119.914ZM407.638 119.914C407.285 119.916 406.939 119.812 406.644 119.616C406.35 119.42 406.12 119.141 405.984 118.814C405.848 118.488 405.812 118.128 405.881 117.781C405.95 117.434 406.12 117.115 406.37 116.865C406.62 116.615 406.938 116.444 407.285 116.376C407.632 116.307 407.992 116.343 408.318 116.479C408.644 116.615 408.923 116.845 409.119 117.139C409.315 117.434 409.418 117.78 409.417 118.134C409.419 118.368 409.374 118.601 409.285 118.817C409.196 119.034 409.065 119.231 408.9 119.397C408.734 119.562 408.537 119.693 408.321 119.782C408.104 119.871 407.872 119.916 407.638 119.914Z" fill="#444053"/>
<path d="M559.018 123.351C561.406 123.351 563.342 121.414 563.342 119.024C563.342 116.635 561.406 114.698 559.018 114.698C556.63 114.698 554.694 116.635 554.694 119.024C554.694 121.414 556.63 123.351 559.018 123.351Z" fill="#6C63FF"/>
<path d="M488.952 141.895H451.804C450.975 141.895 450.303 142.567 450.303 143.397V167.59C450.303 168.419 450.975 169.092 451.804 169.092H488.952C489.781 169.092 490.453 168.419 490.453 167.59V143.397C490.453 142.567 489.781 141.895 488.952 141.895Z" fill="white"/>
<path d="M552.464 141.895H501.331C501.123 141.895 500.954 142.063 500.954 142.272V145.844C500.954 146.053 501.123 146.221 501.331 146.221H552.464C552.672 146.221 552.841 146.053 552.841 145.844V142.272C552.841 142.063 552.672 141.895 552.464 141.895Z" fill="white"/>
<path d="M552.464 151.166H501.331C501.123 151.166 500.954 151.335 500.954 151.543V155.116C500.954 155.324 501.123 155.493 501.331 155.493H552.464C552.672 155.493 552.841 155.324 552.841 155.116V151.543C552.841 151.335 552.672 151.166 552.464 151.166Z" fill="white"/>
<path d="M552.464 160.438H501.331C501.123 160.438 500.954 160.607 500.954 160.815V164.388C500.954 164.596 501.123 164.765 501.331 164.765H552.464C552.672 164.765 552.841 164.596 552.841 164.388V160.815C552.841 160.607 552.672 160.438 552.464 160.438Z" fill="white"/>
<path d="M488.952 184.544H451.804C450.975 184.544 450.303 185.217 450.303 186.046V210.239C450.303 211.069 450.975 211.742 451.804 211.742H488.952C489.781 211.742 490.453 211.069 490.453 210.239V186.046C490.453 185.217 489.781 184.544 488.952 184.544Z" fill="white"/>
<path d="M552.464 184.544H501.331C501.123 184.544 500.954 184.713 500.954 184.921V188.494C500.954 188.702 501.123 188.871 501.331 188.871H552.464C552.672 188.871 552.841 188.702 552.841 188.494V184.921C552.841 184.713 552.672 184.544 552.464 184.544Z" fill="white"/>
<path d="M552.464 193.816H501.331C501.123 193.816 500.954 193.985 500.954 194.193V197.766C500.954 197.974 501.123 198.143 501.331 198.143H552.464C552.672 198.143 552.841 197.974 552.841 197.766V194.193C552.841 193.985 552.672 193.816 552.464 193.816Z" fill="white"/>
<path d="M552.433 203.088H501.362C501.137 203.088 500.954 203.271 500.954 203.496V207.007C500.954 207.232 501.137 207.415 501.362 207.415H552.433C552.658 207.415 552.841 207.232 552.841 207.007V203.496C552.841 203.271 552.658 203.088 552.433 203.088Z" fill="white"/>
<path d="M488.952 227.194H451.804C450.975 227.194 450.303 227.867 450.303 228.696V252.889C450.303 253.719 450.975 254.391 451.804 254.391H488.952C489.781 254.391 490.453 253.719 490.453 252.889V228.696C490.453 227.867 489.781 227.194 488.952 227.194Z" fill="white"/>
<path d="M552.433 227.194H501.362C501.137 227.194 500.954 227.377 500.954 227.602V231.113C500.954 231.339 501.137 231.521 501.362 231.521H552.433C552.658 231.521 552.841 231.339 552.841 231.113V227.602C552.841 227.377 552.658 227.194 552.433 227.194Z" fill="white"/>
<path d="M552.433 236.466H501.362C501.137 236.466 500.954 236.649 500.954 236.874V240.385C500.954 240.61 501.137 240.793 501.362 240.793H552.433C552.658 240.793 552.841 240.61 552.841 240.385V236.874C552.841 236.649 552.658 236.466 552.433 236.466Z" fill="white"/>
<path d="M552.433 245.738H501.362C501.137 245.738 500.954 245.921 500.954 246.146V249.657C500.954 249.882 501.137 250.065 501.362 250.065H552.433C552.658 250.065 552.841 249.882 552.841 249.657V246.146C552.841 245.921 552.658 245.738 552.433 245.738Z" fill="white"/>
<path d="M488.952 269.844H451.804C450.975 269.844 450.303 270.517 450.303 271.347V295.54C450.303 296.369 450.975 297.042 451.804 297.042H488.952C489.781 297.042 490.453 296.369 490.453 295.54V271.347C490.453 270.517 489.781 269.844 488.952 269.844Z" fill="white"/>
<path d="M552.433 269.844H501.362C501.137 269.844 500.954 270.027 500.954 270.252V273.763C500.954 273.989 501.137 274.171 501.362 274.171H552.433C552.658 274.171 552.841 273.989 552.841 273.763V270.252C552.841 270.027 552.658 269.844 552.433 269.844Z" fill="white"/>
<path d="M552.433 279.116H501.362C501.137 279.116 500.954 279.299 500.954 279.524V283.035C500.954 283.26 501.137 283.443 501.362 283.443H552.433C552.658 283.443 552.841 283.26 552.841 283.035V279.524C552.841 279.299 552.658 279.116 552.433 279.116Z" fill="white"/>
<path d="M552.433 288.388H501.362C501.137 288.388 500.954 288.571 500.954 288.796V292.307C500.954 292.532 501.137 292.715 501.362 292.715H552.433C552.658 292.715 552.841 292.532 552.841 292.307V288.796C552.841 288.571 552.658 288.388 552.433 288.388Z" fill="white"/>
<path d="M488.952 312.494H451.804C450.975 312.494 450.303 313.167 450.303 313.996V338.189C450.303 339.019 450.975 339.691 451.804 339.691H488.952C489.781 339.691 490.453 339.019 490.453 338.189V313.996C490.453 313.167 489.781 312.494 488.952 312.494Z" fill="white"/>
<path d="M552.433 312.494H501.362C501.137 312.494 500.954 312.677 500.954 312.902V316.413C500.954 316.638 501.137 316.821 501.362 316.821H552.433C552.658 316.821 552.841 316.638 552.841 316.413V312.902C552.841 312.677 552.658 312.494 552.433 312.494Z" fill="white"/>
<path d="M552.433 321.766H501.362C501.137 321.766 500.954 321.949 500.954 322.174V325.685C500.954 325.91 501.137 326.093 501.362 326.093H552.433C552.658 326.093 552.841 325.91 552.841 325.685V322.174C552.841 321.949 552.658 321.766 552.433 321.766Z" fill="white"/>
<path d="M552.433 331.038H501.362C501.137 331.038 500.954 331.22 500.954 331.446V334.957C500.954 335.182 501.137 335.365 501.362 335.365H552.433C552.658 335.365 552.841 335.182 552.841 334.957V331.446C552.841 331.22 552.658 331.038 552.433 331.038Z" fill="white"/>
<path opacity="0.1" d="M251.867 200.993H188.349V204.287H251.867V200.993Z" fill="#6C63FF"/>
<path opacity="0.1" d="M200.11 183.574H193.995V200.992H200.11V183.574Z" fill="#6C63FF"/>
<path opacity="0.1" d="M209.048 183.574H202.933V200.992H209.048V183.574Z" fill="#6C63FF"/>
<path opacity="0.1" d="M217.986 183.574H211.871V200.992H217.986V183.574Z" fill="#6C63FF"/>
<path opacity="0.1" d="M226.924 183.574H220.809V200.992H226.924V183.574Z" fill="#6C63FF"/>
<path opacity="0.1" d="M235.862 183.574H229.747V200.992H235.862V183.574Z" fill="#6C63FF"/>
<path opacity="0.1" d="M244.807 183.574H238.691V200.992H244.807V183.574Z" fill="#6C63FF"/>
<path opacity="0.1" d="M200.11 186.869H193.995V188.754H200.11V186.869Z" fill="#6C63FF"/>
<path opacity="0.1" d="M209.048 186.869H202.933V188.754H209.048V186.869Z" fill="#6C63FF"/>
<path opacity="0.1" d="M217.986 186.869H211.871V188.754H217.986V186.869Z" fill="#6C63FF"/>
<path opacity="0.1" d="M226.924 186.869H220.809V188.754H226.924V186.869Z" fill="#6C63FF"/>
<path opacity="0.1" d="M235.862 186.869H229.747V188.754H235.862V186.869Z" fill="#6C63FF"/>
<path opacity="0.1" d="M244.807 186.869H238.691V188.754H244.807V186.869Z" fill="#6C63FF"/>
<path opacity="0.1" d="M200.11 195.343H193.995V197.228H200.11V195.343Z" fill="#6C63FF"/>
<path opacity="0.1" d="M209.048 195.343H202.933V197.228H209.048V195.343Z" fill="#6C63FF"/>
<path opacity="0.1" d="M217.986 195.343H211.871V197.228H217.986V195.343Z" fill="#6C63FF"/>
<path opacity="0.1" d="M226.924 195.343H220.809V197.228H226.924V195.343Z" fill="#6C63FF"/>
<path opacity="0.1" d="M235.862 195.343H229.747V197.228H235.862V195.343Z" fill="#6C63FF"/>
<path opacity="0.1" d="M244.807 195.343H238.691V197.228H244.807V195.343Z" fill="#6C63FF"/>
<path opacity="0.1" d="M391.127 209.467H327.609V212.762H391.127V209.467Z" fill="#6C63FF"/>
<path opacity="0.1" d="M339.37 192.049H333.255V209.467H339.37V192.049Z" fill="#6C63FF"/>
<path opacity="0.1" d="M348.308 192.049H342.193V209.467H348.308V192.049Z" fill="#6C63FF"/>
<path opacity="0.1" d="M357.246 192.049H351.131V209.467H357.246V192.049Z" fill="#6C63FF"/>
<path opacity="0.1" d="M366.191 192.049H360.075V209.467H366.191V192.049Z" fill="#6C63FF"/>
<path opacity="0.1" d="M375.129 192.049H369.013V209.467H375.129V192.049Z" fill="#6C63FF"/>
<path opacity="0.1" d="M384.067 192.049H377.952V209.467H384.067V192.049Z" fill="#6C63FF"/>
<path opacity="0.1" d="M339.37 195.343H333.255V197.228H339.37V195.343Z" fill="#6C63FF"/>
<path opacity="0.1" d="M348.308 195.343H342.193V197.228H348.308V195.343Z" fill="#6C63FF"/>
<path opacity="0.1" d="M357.246 195.343H351.131V197.228H357.246V195.343Z" fill="#6C63FF"/>
<path opacity="0.1" d="M366.191 195.343H360.075V197.228H366.191V195.343Z" fill="#6C63FF"/>
<path opacity="0.1" d="M375.129 195.343H369.013V197.228H375.129V195.343Z" fill="#6C63FF"/>
<path opacity="0.1" d="M384.067 195.343H377.952V197.228H384.067V195.343Z" fill="#6C63FF"/>
<path opacity="0.1" d="M339.37 203.817H333.255V205.703H339.37V203.817Z" fill="#6C63FF"/>
<path opacity="0.1" d="M348.308 203.817H342.193V205.703H348.308V203.817Z" fill="#6C63FF"/>
<path opacity="0.1" d="M357.246 203.817H351.131V205.703H357.246V203.817Z" fill="#6C63FF"/>
<path opacity="0.1" d="M366.191 203.817H360.075V205.703H366.191V203.817Z" fill="#6C63FF"/>
<path opacity="0.1" d="M375.129 203.817H369.013V205.703H375.129V203.817Z" fill="#6C63FF"/>
<path opacity="0.1" d="M384.067 203.817H377.952V205.703H384.067V203.817Z" fill="#6C63FF"/>
<path opacity="0.1" d="M391.127 233.475H327.609V236.769H391.127V233.475Z" fill="#6C63FF"/>
<path opacity="0.1" d="M339.37 216.056H333.255V233.475H339.37V216.056Z" fill="#6C63FF"/>
<path opacity="0.1" d="M348.308 216.056H342.193V233.475H348.308V216.056Z" fill="#6C63FF"/>
<path opacity="0.1" d="M357.246 216.056H351.131V233.475H357.246V216.056Z" fill="#6C63FF"/>
<path opacity="0.1" d="M366.191 216.056H360.075V233.475H366.191V216.056Z" fill="#6C63FF"/>
<path opacity="0.1" d="M375.129 216.056H369.013V233.475H375.129V216.056Z" fill="#6C63FF"/>
<path opacity="0.1" d="M384.067 216.056H377.952V233.475H384.067V216.056Z" fill="#6C63FF"/>
<path opacity="0.1" d="M339.37 219.351H333.255V221.236H339.37V219.351Z" fill="#6C63FF"/>
<path opacity="0.1" d="M348.308 219.351H342.193V221.236H348.308V219.351Z" fill="#6C63FF"/>
<path opacity="0.1" d="M357.246 219.351H351.131V221.236H357.246V219.351Z" fill="#6C63FF"/>
<path opacity="0.1" d="M366.191 219.351H360.075V221.236H366.191V219.351Z" fill="#6C63FF"/>
<path opacity="0.1" d="M375.129 219.351H369.013V221.236H375.129V219.351Z" fill="#6C63FF"/>
<path opacity="0.1" d="M384.067 219.351H377.952V221.236H384.067V219.351Z" fill="#6C63FF"/>
<path opacity="0.1" d="M339.37 227.825H333.255V229.71H339.37V227.825Z" fill="#6C63FF"/>
<path opacity="0.1" d="M348.308 227.825H342.193V229.71H348.308V227.825Z" fill="#6C63FF"/>
<path opacity="0.1" d="M357.246 227.825H351.131V229.71H357.246V227.825Z" fill="#6C63FF"/>
<path opacity="0.1" d="M366.191 227.825H360.075V229.71H366.191V227.825Z" fill="#6C63FF"/>
<path opacity="0.1" d="M375.129 227.825H369.013V229.71H375.129V227.825Z" fill="#6C63FF"/>
<path opacity="0.1" d="M384.067 227.825H377.952V229.71H384.067V227.825Z" fill="#6C63FF"/>
<path opacity="0.1" d="M227.313 238.246C226.84 237.639 226.406 237.001 226.016 236.336L235.164 234.834L225.281 234.909C224.333 232.843 223.816 230.606 223.76 228.334C223.705 226.062 224.113 223.802 224.96 221.693L238.209 228.567L225.973 219.567C227.111 217.568 228.65 215.827 230.493 214.452C232.336 213.076 234.444 212.097 236.683 211.576C238.922 211.055 241.245 211.002 243.505 211.422C245.765 211.842 247.915 212.724 249.818 214.015C251.721 215.305 253.337 216.976 254.564 218.921C255.792 220.866 256.604 223.044 256.95 225.318C257.296 227.593 257.169 229.914 256.576 232.137C255.983 234.359 254.937 236.435 253.504 238.234C254.248 239.174 254.886 240.194 255.406 241.275L243.534 247.456L256.191 243.21C257.076 245.836 257.294 248.641 256.825 251.372C256.356 254.104 255.214 256.675 253.504 258.854C255.443 261.315 256.651 264.272 256.989 267.388C257.327 270.503 256.782 273.651 255.415 276.471C254.049 279.291 251.917 281.669 249.263 283.332C246.609 284.996 243.54 285.878 240.408 285.878C237.277 285.878 234.208 284.996 231.554 283.332C228.9 281.669 226.768 279.291 225.402 276.471C224.035 273.651 223.49 270.503 223.828 267.388C224.166 264.272 225.374 261.315 227.313 258.854C225.003 255.914 223.748 252.282 223.748 248.541C223.748 244.801 225.003 241.169 227.313 238.228V238.246Z" fill="#6C63FF"/>
<path opacity="0.1" d="M257.074 248.557C257.074 252.293 255.817 255.921 253.504 258.854C255.443 261.315 256.651 264.272 256.989 267.388C257.327 270.503 256.782 273.651 255.415 276.471C254.049 279.291 251.917 281.669 249.263 283.332C246.609 284.996 243.54 285.878 240.408 285.878C237.277 285.878 234.208 284.996 231.554 283.332C228.9 281.669 226.768 279.291 225.402 276.471C224.035 273.651 223.49 270.503 223.828 267.388C224.166 264.272 225.374 261.315 227.313 258.854C225.071 256.03 257.074 246.684 257.074 248.557Z" fill="#6C63FF"/>
<path opacity="0.2" d="M243.077 290.304C243.106 290.348 243.133 290.393 243.157 290.44H237.499C237.53 290.397 237.549 290.347 237.579 290.304C237.092 289.457 236.841 288.494 236.851 287.516C236.848 286.846 236.963 286.181 237.19 285.551C237.505 285.6 237.894 285.656 238.345 285.705C239.658 285.837 240.98 285.837 242.292 285.705C242.671 285.668 243.061 285.619 243.46 285.557C243.457 285.567 243.457 285.578 243.46 285.588C243.685 286.208 243.798 286.863 243.793 287.523C243.806 288.497 243.559 289.457 243.077 290.304Z" fill="#3F3D56"/>
<path opacity="0.1" d="M222.742 290.44H191.24C191.172 290.261 191.11 290.069 191.054 289.884C189.944 286.312 190.073 282.47 191.419 278.98C188.343 276.853 186.072 273.753 184.968 270.178C183.865 266.603 183.994 262.761 185.334 259.269C184.701 258.832 184.101 258.351 183.537 257.828L191.826 253.693L182.4 256.685C180.885 254.993 179.73 253.008 179.008 250.854C178.286 248.7 178.011 246.42 178.2 244.156L192.907 246.813L178.564 241.825C179.059 239.576 180.014 237.454 181.368 235.592C182.723 233.73 184.448 232.168 186.434 231.006C188.421 229.844 190.627 229.105 192.913 228.837C195.199 228.57 197.515 228.778 199.717 229.45C201.918 230.121 203.957 231.242 205.704 232.74C207.452 234.239 208.871 236.083 209.871 238.157C210.872 240.231 211.433 242.49 211.519 244.791C211.604 247.093 211.213 249.387 210.37 251.53C211.365 252.222 212.282 253.02 213.106 253.909L203.581 263.311L214.422 255.51C216.046 257.76 217.085 260.379 217.443 263.131C217.801 265.884 217.467 268.682 216.473 271.272C219.464 273.345 221.696 276.341 222.828 279.801C223.96 283.262 223.93 286.998 222.742 290.44Z" fill="#6C63FF"/>
<path opacity="0.1" d="M222.742 290.44H191.24C191.172 290.261 191.11 290.069 191.054 289.884C189.944 286.312 190.073 282.47 191.419 278.98C188.454 276.928 216.269 258.539 216.819 260.332C217.928 263.905 217.8 267.75 216.454 271.241C219.456 273.313 221.696 276.313 222.831 279.78C223.967 283.248 223.936 286.992 222.742 290.44Z" fill="#6C63FF"/>
<path opacity="0.1" d="M365.276 267.854C363.363 271.067 360.423 273.541 356.931 274.876C357.081 276.065 357.103 277.267 356.999 278.461L343.651 277.657L356.69 280.488C356.307 282.267 355.635 283.971 354.701 285.532C353.565 287.444 352.052 289.106 350.254 290.415H332.081V290.891H313.55C313.587 290.73 313.624 290.576 313.668 290.415C314.344 287.858 315.618 285.498 317.384 283.53C319.151 281.563 321.36 280.043 323.829 279.098C323.355 275.387 324.14 271.625 326.059 268.414C327.978 265.204 330.919 262.732 334.41 261.395C334.312 260.63 334.267 259.86 334.274 259.089L342.891 262.495L334.367 257.482C334.618 255.223 335.328 253.039 336.453 251.064C337.578 249.089 339.094 247.365 340.908 245.997L348.759 258.718L342.872 244.712C346.079 242.936 349.781 242.267 353.405 242.808C357.03 243.348 360.376 245.068 362.926 247.702C365.476 250.336 367.088 253.737 367.513 257.38C367.937 261.022 367.152 264.703 365.276 267.854Z" fill="#6C63FF"/>
<path opacity="0.1" d="M354.701 285.557C353.565 287.469 352.052 289.131 350.254 290.44H332.081V290.916H313.55C313.587 290.755 313.624 290.601 313.668 290.44C314.344 287.883 315.618 285.523 317.384 283.555C319.151 281.587 321.36 280.068 323.829 279.122C323.674 277.886 327.263 278.072 332.05 278.875C341.433 280.451 355.338 284.494 354.701 285.557Z" fill="#6C63FF"/>
<path d="M275.932 241.046C275.932 241.046 278.218 253.409 273.116 257.445C268.013 261.481 277.44 285.674 292.993 282.85C308.547 280.025 314.884 259.732 314.884 259.732C314.884 259.732 299.306 256.506 305.082 240.107L275.932 241.046Z" fill="#EE8E9E"/>
<path opacity="0.1" d="M275.932 241.046C275.932 241.046 278.218 253.409 273.116 257.445C268.013 261.481 277.44 285.674 292.993 282.85C308.547 280.025 314.884 259.732 314.884 259.732C314.884 259.732 299.306 256.506 305.082 240.107L275.932 241.046Z" fill="black"/>
<path d="M289.701 250.12C303.944 250.12 315.49 238.567 315.49 224.314C315.49 210.062 303.944 198.508 289.701 198.508C275.458 198.508 263.912 210.062 263.912 224.314C263.912 238.567 275.458 250.12 289.701 250.12Z" fill="#EE8E9E"/>
<path d="M332.081 273.374V290.916H246.925V274.171C246.925 272.048 247.55 269.972 248.722 268.202C249.895 266.432 251.562 265.047 253.516 264.219L255.956 263.181C262.133 260.548 269.638 257.278 272.09 255.918C272.359 255.784 272.612 255.62 272.844 255.43C274.184 254.089 273.919 255.832 273.919 255.832C273.919 255.832 273.882 256.165 273.857 256.74C273.709 260.69 274.277 276.211 292.456 274.919C310.19 273.683 310.987 261.679 310.808 258.15C310.798 257.823 310.771 257.497 310.727 257.173C311.954 257.465 313.154 257.858 314.316 258.347C318.022 259.72 323.495 261.92 324.959 262.959C325.416 263.28 325.972 263.614 326.578 263.954C327.264 264.337 327.906 264.795 328.492 265.32C329.622 266.335 330.525 267.577 331.144 268.964C331.762 270.352 332.081 271.854 332.081 273.374Z" fill="#6C63FF"/>
<path opacity="0.1" d="M314.316 258.347C312.815 265.307 308.102 278.343 291.115 278.683C273.017 279.042 271.967 261.03 272.084 255.918C272.357 255.787 272.612 255.623 272.844 255.43C274.19 254.089 273.919 255.832 273.919 255.832C273.919 255.832 271.639 276.396 292.45 274.919C313.26 273.442 310.703 257.179 310.703 257.179C310.703 257.08 312.253 257.618 314.316 258.347Z" fill="black"/>
<path d="M259.174 225.606C260.03 225.392 260.931 225.439 261.76 225.742C262.589 226.045 263.309 226.59 263.825 227.306C264.764 228.622 264.906 230.211 265.024 231.731C266.142 231.966 266.772 230.699 266.877 229.741C267.291 225.841 267.322 221.866 268.631 218.096C269.941 214.325 272.801 210.678 277.192 209.238C278.693 208.718 280.297 208.565 281.868 208.793C282.801 208.948 283.678 209.275 284.605 209.411C287.817 209.943 291.307 208.422 294.315 209.479C296.205 210.147 297.404 211.686 298.287 213.225C298.671 214.055 299.193 214.814 299.831 215.469C301.11 216.618 303.111 216.915 304.946 217.274C306.78 217.632 308.782 218.256 309.566 219.672C310.27 220.951 309.751 222.429 309.517 223.813C309.154 226.007 309.52 228.259 310.561 230.223C310.9 230.841 311.592 231.589 312.414 231.385C312.782 231.261 313.093 231.009 313.291 230.674C315.397 227.72 315.342 223.875 317.985 221.211C318.869 220.321 320.011 219.629 320.87 218.739C321.52 218.079 321.996 217.269 322.257 216.38C322.518 215.491 322.555 214.552 322.365 213.645C321.889 211.606 320.258 209.937 318.943 208.144C317.234 205.873 315.989 203.288 315.28 200.535C315.156 200.215 315.156 199.86 315.28 199.54C315.529 199.215 315.851 198.953 316.219 198.773C316.935 198.293 317.451 197.568 317.672 196.734C317.892 195.9 317.802 195.015 317.417 194.243C316.67 192.716 315.027 191.554 313.173 190.862C311.294 190.244 309.354 189.829 307.386 189.625C306.088 189.811 304.569 189.075 304.167 188.037C303.988 187.573 303.988 187.073 303.809 186.609C303.566 186.143 303.215 185.743 302.785 185.442C302.355 185.141 301.859 184.947 301.338 184.878C300.233 184.699 299.102 184.78 298.034 185.113C296.798 185.459 295.396 185.978 294.327 185.373C293.765 185.057 293.457 184.483 292.851 184.223C291.616 183.704 290.343 184.755 289.46 185.62C288.609 186.528 287.564 187.232 286.402 187.678C285.789 187.912 285.133 188.01 284.478 187.967C283.824 187.923 283.186 187.738 282.61 187.425C281.763 186.887 281.337 186.022 280.664 185.336C279.392 184.201 277.765 183.545 276.062 183.481C274.311 183.388 272.557 183.58 270.867 184.05C267.643 184.836 264.563 186.13 261.744 187.882C260.326 188.662 259.122 189.781 258.241 191.14C257.72 192.181 257.451 193.331 257.457 194.496C257.321 198.149 258.532 201.994 261.688 204.553C259.761 205.356 259.112 207.328 258.662 209.077C257.939 211.871 257.216 214.708 257.488 217.552C257.624 219.023 258.025 220.494 257.809 221.959C257.636 222.649 257.54 223.356 257.525 224.067C257.616 224.458 257.821 224.814 258.115 225.088C258.409 225.362 258.778 225.542 259.174 225.606Z" fill="#454B69"/>
<g opacity="0.1">
<path opacity="0.1" d="M321.963 212.496C321.686 213.101 321.31 213.657 320.851 214.14C319.993 215.042 318.85 215.741 317.967 216.612C315.323 219.258 315.379 223.127 313.272 226.082C313.076 226.416 312.764 226.667 312.395 226.786C311.592 226.997 310.9 226.267 310.542 225.624C310.134 224.842 309.825 224.011 309.622 223.152C309.578 223.368 309.535 223.585 309.498 223.77C309.135 225.963 309.502 228.215 310.542 230.18C310.882 230.798 311.574 231.546 312.395 231.342C312.763 231.217 313.074 230.965 313.272 230.631C315.379 227.676 315.323 223.832 317.967 221.168C318.85 220.278 319.993 219.585 320.851 218.695C321.501 218.036 321.978 217.225 322.239 216.337C322.5 215.448 322.536 214.509 322.346 213.602C322.251 213.223 322.123 212.852 321.963 212.496Z" fill="black"/>
<path opacity="0.1" d="M316.206 194.199C315.837 194.377 315.515 194.64 315.267 194.966C315.144 195.284 315.144 195.637 315.267 195.955C315.511 196.915 315.823 197.857 316.2 198.774C316.916 198.293 317.433 197.568 317.653 196.734C317.874 195.9 317.783 195.015 317.399 194.243C317.278 193.988 317.133 193.746 316.966 193.52C316.747 193.781 316.491 194.01 316.206 194.199Z" fill="black"/>
<path opacity="0.1" d="M261.726 199.929C259.537 198.125 258.096 195.572 257.68 192.765C257.569 193.319 257.507 193.882 257.495 194.447C257.353 197.146 258.064 199.821 259.527 202.093C259.969 201.126 260.752 200.356 261.726 199.929Z" fill="black"/>
<path opacity="0.1" d="M309.517 219.258C309.751 217.867 310.27 216.39 309.566 215.117C308.782 213.695 306.78 213.077 304.946 212.718C303.111 212.36 301.11 212.057 299.831 210.913C299.193 210.258 298.671 209.5 298.287 208.67C297.416 207.13 296.205 205.579 294.315 204.924C291.307 203.867 287.817 205.381 284.605 204.856C283.678 204.701 282.801 204.38 281.868 204.238C280.297 204.008 278.693 204.161 277.192 204.683C272.801 206.129 269.941 209.776 268.631 213.54C267.322 217.305 267.291 221.279 266.877 225.186C266.772 226.138 266.142 227.411 265.024 227.176C264.906 225.649 264.764 224.085 263.825 222.744C263.308 222.029 262.588 221.486 261.759 221.184C260.93 220.882 260.03 220.836 259.174 221.05C258.655 220.934 258.194 220.639 257.871 220.216C257.939 220.783 257.939 221.355 257.871 221.922C257.698 222.612 257.602 223.319 257.587 224.03C257.666 224.425 257.862 224.788 258.15 225.071C258.437 225.354 258.802 225.545 259.199 225.618C260.055 225.404 260.956 225.452 261.785 225.755C262.614 226.058 263.333 226.602 263.85 227.318C264.789 228.635 264.931 230.223 265.049 231.744C266.167 231.979 266.797 230.712 266.902 229.754C267.315 225.853 267.346 221.879 268.656 218.108C269.965 214.338 272.825 210.691 277.217 209.251C278.718 208.73 280.321 208.578 281.893 208.806C282.826 208.96 283.703 209.288 284.63 209.424C287.842 209.955 291.332 208.435 294.34 209.492C296.23 210.159 297.428 211.698 298.312 213.237C298.696 214.067 299.218 214.826 299.856 215.481C301.135 216.631 303.136 216.928 304.97 217.286C306.805 217.645 308.677 218.226 309.498 219.536C309.467 219.443 309.498 219.351 309.517 219.258Z" fill="black"/>
<path opacity="0.1" d="M257.846 217.335C257.948 216.184 257.879 215.024 257.642 213.893C257.461 215.087 257.422 216.299 257.525 217.502C257.525 217.811 257.593 218.12 257.636 218.423C257.704 218.059 257.797 217.7 257.846 217.335Z" fill="black"/>
</g>
<path d="M227.616 315.857V304.7C227.616 304.616 227.649 304.536 227.708 304.477C227.767 304.418 227.847 304.385 227.931 304.385H229.197C229.281 304.385 229.361 304.418 229.42 304.477C229.479 304.536 229.512 304.616 229.512 304.7V309.342L234.652 304.576C234.772 304.475 234.919 304.411 235.075 304.389C235.231 304.368 235.39 304.391 235.533 304.455C235.677 304.519 235.799 304.623 235.887 304.754C235.975 304.884 236.024 305.037 236.029 305.194V315.301C236.024 315.458 235.975 315.611 235.887 315.741C235.799 315.872 235.677 315.976 235.533 316.04C235.39 316.104 235.231 316.127 235.075 316.106C234.919 316.084 234.772 316.019 234.652 315.919L229.512 311.184V315.801C229.512 315.885 229.479 315.965 229.42 316.024C229.361 316.083 229.281 316.116 229.197 316.116H227.931C227.856 316.118 227.783 316.092 227.726 316.045C227.668 315.997 227.629 315.93 227.616 315.857Z" fill="#444053"/>
<path d="M351.792 304.7V315.857C351.792 315.899 351.784 315.94 351.767 315.979C351.751 316.018 351.727 316.053 351.698 316.082C351.668 316.111 351.632 316.134 351.593 316.15C351.554 316.165 351.513 316.173 351.471 316.172H350.235C350.152 316.172 350.072 316.139 350.013 316.08C349.954 316.021 349.92 315.94 349.92 315.857V311.215L344.781 315.974C344.66 316.075 344.513 316.139 344.357 316.16C344.201 316.181 344.042 316.158 343.898 316.094C343.754 316.03 343.631 315.927 343.543 315.796C343.454 315.666 343.404 315.514 343.397 315.356V305.213C343.404 305.056 343.454 304.903 343.543 304.773C343.631 304.642 343.754 304.539 343.898 304.475C344.042 304.411 344.201 304.388 344.357 304.409C344.513 304.43 344.66 304.495 344.781 304.595L349.92 309.33V304.719C349.92 304.635 349.954 304.555 350.013 304.496C350.072 304.436 350.152 304.403 350.235 304.403H351.471C351.552 304.402 351.631 304.431 351.691 304.487C351.751 304.542 351.787 304.619 351.792 304.7Z" fill="#444053"/>
<path d="M287.607 316.339H285.093C284.765 316.339 284.451 316.209 284.219 315.977C283.988 315.745 283.857 315.431 283.857 315.103V305.868C283.857 305.54 283.988 305.226 284.219 304.994C284.451 304.762 284.765 304.632 285.093 304.632H287.607C287.935 304.632 288.249 304.762 288.48 304.994C288.712 305.226 288.842 305.54 288.842 305.868V315.103C288.842 315.431 288.712 315.745 288.48 315.977C288.249 316.209 287.935 316.339 287.607 316.339ZM295.575 315.103V305.868C295.575 305.54 295.445 305.226 295.213 304.994C294.982 304.762 294.667 304.632 294.34 304.632H291.801C291.473 304.632 291.159 304.762 290.928 304.994C290.696 305.226 290.566 305.54 290.566 305.868V315.103C290.566 315.431 290.696 315.745 290.928 315.977C291.159 316.209 291.473 316.339 291.801 316.339H294.315C294.479 316.342 294.643 316.313 294.795 316.252C294.948 316.191 295.087 316.101 295.205 315.986C295.322 315.871 295.415 315.733 295.479 315.582C295.542 315.43 295.575 315.267 295.575 315.103Z" fill="#444053"/>
<path opacity="0.6" d="M363.825 289.661H215.577V291.312H363.825V289.661Z" fill="#444053"/>
<path d="M261.355 294.396C263.514 294.396 265.265 292.644 265.265 290.483C265.265 288.322 263.514 286.571 261.355 286.571C259.195 286.571 257.445 288.322 257.445 290.483C257.445 292.644 259.195 294.396 261.355 294.396Z" fill="#444053"/>
<path d="M261.355 289.661H215.577V291.312H261.355V289.661Z" fill="#444053"/>
<path d="M591.187 475.936C611.475 475.936 627.922 472.771 627.922 468.865C627.922 464.96 611.475 461.794 591.187 461.794C570.9 461.794 554.453 464.96 554.453 468.865C554.453 472.771 570.9 475.936 591.187 475.936Z" fill="#6C63FF"/>
<path d="M590.576 471.461C592.937 471.461 594.85 468.954 594.85 465.861C594.85 462.768 592.937 460.261 590.576 460.261C588.215 460.261 586.301 462.768 586.301 465.861C586.301 468.954 588.215 471.461 590.576 471.461Z" fill="#3F3D56"/>
<path d="M590.576 464.612C592.937 464.612 594.85 462.105 594.85 459.012C594.85 455.919 592.937 453.412 590.576 453.412C588.215 453.412 586.301 455.919 586.301 459.012C586.301 462.105 588.215 464.612 590.576 464.612Z" fill="#3F3D56"/>
<path d="M590.576 457.77C592.937 457.77 594.85 455.263 594.85 452.17C594.85 449.077 592.937 446.57 590.576 446.57C588.215 446.57 586.301 449.077 586.301 452.17C586.301 455.263 588.215 457.77 590.576 457.77Z" fill="#3F3D56"/>
<path d="M590.576 450.921C592.937 450.921 594.85 448.414 594.85 445.321C594.85 442.228 592.937 439.721 590.576 439.721C588.215 439.721 586.301 442.228 586.301 445.321C586.301 448.414 588.215 450.921 590.576 450.921Z" fill="#3F3D56"/>
<path d="M590.576 444.073C592.937 444.073 594.85 441.566 594.85 438.473C594.85 435.38 592.937 432.873 590.576 432.873C588.215 432.873 586.301 435.38 586.301 438.473C586.301 441.566 588.215 444.073 590.576 444.073Z" fill="#3F3D56"/>
<path d="M590.576 437.224C592.937 437.224 594.85 434.717 594.85 431.624C594.85 428.531 592.937 426.024 590.576 426.024C588.215 426.024 586.301 428.531 586.301 431.624C586.301 434.717 588.215 437.224 590.576 437.224Z" fill="#3F3D56"/>
<path d="M590.576 430.375C592.937 430.375 594.85 427.868 594.85 424.775C594.85 421.682 592.937 419.175 590.576 419.175C588.215 419.175 586.301 421.682 586.301 424.775C586.301 427.868 588.215 430.375 590.576 430.375Z" fill="#3F3D56"/>
<path d="M606.581 377.922C607.164 377.175 607.696 376.391 608.174 375.573L596.932 373.719L609.088 373.811C610.252 371.272 610.887 368.522 610.954 365.729C611.021 362.937 610.519 360.159 609.478 357.567L593.183 366.035L608.217 354.977C606.809 352.54 604.914 350.42 602.65 348.748C600.387 347.076 597.804 345.888 595.061 345.259C592.319 344.629 589.477 344.572 586.711 345.09C583.946 345.608 581.317 346.69 578.988 348.269C576.659 349.849 574.68 351.891 573.174 354.269C571.668 356.647 570.668 359.31 570.236 362.092C569.803 364.874 569.948 367.715 570.661 370.439C571.374 373.162 572.64 375.709 574.38 377.922C573.474 379.073 572.691 380.316 572.045 381.63L586.635 389.215L571.081 383.992C569.989 387.222 569.719 390.673 570.295 394.034C570.871 397.394 572.275 400.559 574.38 403.24C572.005 406.263 570.528 409.895 570.117 413.719C569.707 417.543 570.38 421.405 572.06 424.864C573.74 428.324 576.358 431.24 579.616 433.281C582.874 435.321 586.64 436.403 590.483 436.403C594.327 436.403 598.093 435.321 601.35 433.281C604.608 431.24 607.227 428.324 608.906 424.864C610.586 421.405 611.259 417.543 610.849 413.719C610.439 409.895 608.962 406.263 606.587 403.24C609.424 399.626 610.966 395.164 610.966 390.568C610.966 385.973 609.424 381.511 606.587 377.897L606.581 377.922Z" fill="#6C63FF"/>
<path opacity="0.1" d="M570 390.593C569.992 395.19 571.535 399.655 574.38 403.265C572.005 406.288 570.528 409.92 570.117 413.744C569.707 417.568 570.38 421.43 572.06 424.889C573.74 428.348 576.358 431.265 579.616 433.305C582.874 435.346 586.64 436.428 590.483 436.428C594.327 436.428 598.093 435.346 601.35 433.305C604.608 431.265 607.227 428.348 608.906 424.889C610.586 421.43 611.259 417.568 610.849 413.744C610.439 409.92 608.962 406.288 606.587 403.265C609.329 399.785 570 388.294 570 390.593Z" fill="black"/>
<path opacity="0.1" d="M179.133 514C212.906 514 240.285 508.188 240.285 501.019C240.285 493.851 212.906 488.039 179.133 488.039C145.359 488.039 117.981 493.851 117.981 501.019C117.981 508.188 145.359 514 179.133 514Z" fill="#6C63FF"/>
<path d="M199.609 499.511C198.374 499.06 197.052 499.134 195.761 498.992C193.081 498.682 190.585 497.471 188.682 495.556C187.459 494.318 186.497 492.846 185.853 491.229C186.261 491.377 186.669 491.532 187.089 491.698C185.853 488.812 187.15 485.573 188.287 482.655C190.214 477.711 192.036 472.739 193.754 467.74C198.078 455.075 201.784 441.903 201.703 428.428C201.703 423.557 200.808 418.952 200.635 414.088C200.505 410.478 201.061 406.874 201.036 403.259C201.036 402.752 201.036 402.251 200.999 401.744C202.104 400.776 202.972 399.567 203.537 398.21C204.101 396.854 204.347 395.385 204.255 393.919C204.192 393.155 204.082 392.395 203.927 391.644C203.708 390.34 203.42 389.048 203.062 387.775C202.655 386.433 202.099 385.148 201.623 383.837C200.703 381.297 200.079 378.651 199.294 376.068C199.585 376.097 199.869 376.175 200.135 376.296C199.937 376.064 199.801 375.786 199.739 375.487C199.278 373.842 199.029 372.145 198.998 370.437L199.523 370.202C199.759 368.534 199.673 366.836 199.27 365.201C199.566 362.549 200.03 359.879 200.314 357.24C200.419 356.251 200.375 355.008 199.467 354.767C199.282 353.352 199.208 351.918 199.134 350.49C198.874 345.508 198.617 340.528 198.362 335.55C198.102 330.55 197.843 325.555 197.744 320.548C197.676 317.371 197.639 314.083 196.885 311.042C197.016 309.585 196.867 308.116 196.447 306.715C195.298 303.074 191.728 300.188 188.108 300.392C187.028 298.846 185.694 297.496 184.161 296.399C184.884 294.779 185.748 293.11 186.459 291.8C192.253 289.915 196.49 284.197 196.49 277.398C196.499 274.909 195.916 272.454 194.791 270.234C194.898 269.961 194.988 269.682 195.063 269.399C195.373 268.064 195.277 266.667 194.785 265.388C194.611 264.897 194.405 264.418 194.168 263.954C194.007 263.645 193.834 263.336 193.655 263.039L193.34 262.563C193.148 262.273 192.951 261.994 192.722 261.722C192.283 261.133 191.813 260.568 191.314 260.029C190.699 259.363 190.02 258.758 189.288 258.224C188.294 257.485 187.159 256.961 185.952 256.685C185.255 256.547 184.544 256.483 183.833 256.493C183.407 256.493 182.975 256.493 182.549 256.53C181.684 256.58 180.825 256.641 179.967 256.635C179.682 256.635 179.392 256.635 179.108 256.592C177.597 256.39 176.102 256.078 174.636 255.659L173.895 255.504C173.641 255.455 173.394 255.411 173.141 255.381C172.463 255.29 171.78 255.249 171.096 255.257H170.411C169.726 255.29 169.043 255.36 168.366 255.467L167.687 255.572C165.971 255.841 164.299 256.338 162.714 257.049C162.51 257.142 162.3 257.247 162.097 257.358L161.973 257.426C161.806 257.513 161.64 257.606 161.479 257.705L161.386 257.76L160.861 258.094L160.818 258.125C155.913 261.426 153.016 267.681 152.281 273.887C151.46 280.853 152.899 287.875 154.338 294.73L155.635 300.911C155.691 301.189 155.753 301.461 155.808 301.739C153.984 303.237 152.582 305.184 151.738 307.389C150.502 310.479 150.472 313.823 150.57 317.174C150.57 317.853 150.607 318.533 150.675 319.213C150.521 320.499 150.385 321.791 150.299 323.089C149.909 329.085 150.638 335.111 150.447 341.119C150.299 345.749 149.601 350.391 149.94 354.99C150.237 359.069 151.33 363.025 152.411 366.963L153.968 372.575C154.018 372.866 154.154 373.135 154.357 373.348C154.612 373.52 154.925 373.584 155.228 373.527C154.215 375.829 153.369 378.2 152.695 380.623C152.23 382.107 151.923 383.636 151.781 385.185C151.577 388.016 152.232 390.828 152.887 393.579C153.875 397.7 154.859 401.837 155.839 405.991C156.531 408.896 157.221 411.799 157.909 414.7C159.268 420.424 160.633 426.184 160.886 432.075C161.027 435.033 160.82 437.998 160.268 440.908C158.486 449.622 158.227 458.579 159.502 467.382C160.533 474.808 162.205 482.132 164.499 489.269C165 489.004 165.506 488.756 166.025 488.528L165.809 488.929C165.097 490.166 164.438 491.433 163.832 492.731C163.424 493.574 163.071 494.444 162.776 495.333C161.985 497.805 161.862 500.439 161.751 503.041C161.694 503.541 161.738 504.048 161.88 504.531C162.22 505.464 163.196 505.94 164.104 506.199C166.773 506.96 169.546 506.688 172.32 506.329C172.332 506.391 172.351 506.451 172.375 506.509C172.715 507.442 173.685 507.918 174.599 508.177C178.416 509.265 182.444 508.239 186.378 507.868C190.313 507.498 194.18 507.769 197.966 506.861C198.531 506.74 199.073 506.532 199.572 506.243C200.546 505.561 201.26 504.57 201.598 503.43C201.717 503.135 201.796 502.825 201.833 502.509C201.988 501.156 200.833 499.963 199.609 499.511ZM186.545 442.268C186.332 443.716 185.916 445.127 185.31 446.459C182.338 452.781 180.208 459.467 178.972 466.343C178.161 470.886 177.693 475.483 177.57 480.096C177.508 483.496 177.638 487.056 176.223 490.11L176.736 490.03C176.575 490.326 176.421 490.648 176.273 490.883L176.199 491.019C175.343 489.561 174.771 487.954 174.512 486.284C174.512 486.228 174.234 486.185 173.808 486.16C172.062 476.396 171.457 466.462 172.004 456.559C172.013 455.357 172.179 454.162 172.499 453.004C172.814 452.009 173.345 451.101 173.734 450.136C174.351 448.516 174.766 446.827 174.969 445.105C175.642 440.705 175.903 436.252 175.748 431.803C175.599 427.606 176.569 423.434 177.397 419.255C177.792 417.271 178.157 415.281 178.354 413.291L178.391 412.889C182.067 418.956 184.635 425.628 185.977 432.594C186.723 435.762 186.915 439.035 186.545 442.268ZM160.108 352.938L160.305 353.111C160.902 353.636 161.452 354.214 161.948 354.835C162.195 355.106 162.373 355.433 162.467 355.787C162.653 356.69 161.905 357.456 161.294 358.118C161.028 358.404 160.778 358.705 160.546 359.02C160.414 356.993 160.274 354.965 160.126 352.938H160.108Z" fill="url(#paint0_linear)"/>
<path d="M151.559 314.194L150.879 319.442C150.651 321.222 150.422 322.996 150.299 324.783C149.885 330.729 150.651 336.7 150.453 342.659C150.292 347.245 149.563 351.825 149.916 356.405C150.231 360.448 151.38 364.379 152.528 368.273L154.159 373.836C154.215 374.127 154.357 374.394 154.567 374.603C154.881 374.789 155.254 374.849 155.611 374.77L162.85 374.114C162.387 371.988 161.874 369.788 161.615 367.606C161.417 365.9 161.3 364.181 161.176 362.463C160.793 357.11 160.355 351.757 159.941 346.392L159.169 336.997C158.841 332.917 158.502 328.819 157.476 324.857C156.447 320.855 154.41 317.184 151.559 314.194Z" fill="#6C63FF"/>
<path opacity="0.1" d="M151.559 314.194L150.879 319.442C150.651 321.222 150.422 322.996 150.299 324.783C149.885 330.729 150.651 336.7 150.453 342.659C150.292 347.245 149.563 351.825 149.916 356.405C150.231 360.448 151.38 364.379 152.528 368.273L154.159 373.836C154.215 374.127 154.357 374.394 154.567 374.603C154.881 374.789 155.254 374.849 155.611 374.77L162.85 374.114C162.387 371.988 161.874 369.788 161.615 367.606C161.417 365.9 161.3 364.181 161.176 362.463C160.793 357.11 160.355 351.757 159.941 346.392L159.169 336.997C158.841 332.917 158.502 328.819 157.476 324.857C156.447 320.855 154.41 317.184 151.559 314.194Z" fill="black"/>
<path d="M164.456 492.842C164.031 493.679 163.66 494.541 163.344 495.425C162.517 497.867 162.393 500.488 162.27 503.065C162.215 503.562 162.261 504.064 162.405 504.543C162.764 505.47 163.789 505.94 164.747 506.193C168.755 507.275 172.98 506.261 177.101 505.89C181.221 505.519 185.291 505.791 189.269 504.895C189.857 504.782 190.425 504.584 190.955 504.308C191.963 503.652 192.715 502.67 193.087 501.526C193.206 501.233 193.287 500.926 193.327 500.611C193.457 499.252 192.277 498.077 190.993 497.632C189.708 497.187 188.306 497.255 186.953 497.119C184.167 496.834 181.552 495.637 179.515 493.713C177.478 491.79 176.132 489.248 175.686 486.481C175.637 486.185 168.99 486.364 168.274 486.747C167.458 487.198 166.964 488.317 166.501 489.077C165.772 490.301 165.09 491.556 164.456 492.842Z" fill="#A26565"/>
<path opacity="0.1" d="M164.456 492.842C164.031 493.679 163.66 494.541 163.344 495.425C162.517 497.867 162.393 500.488 162.27 503.065C162.215 503.562 162.261 504.064 162.405 504.543C162.764 505.47 163.789 505.94 164.747 506.193C168.755 507.275 172.98 506.261 177.101 505.89C181.221 505.519 185.291 505.791 189.269 504.895C189.857 504.782 190.425 504.584 190.955 504.308C191.963 503.652 192.715 502.67 193.087 501.526C193.206 501.233 193.287 500.926 193.327 500.611C193.457 499.252 192.277 498.077 190.993 497.632C189.708 497.187 188.306 497.255 186.953 497.119C184.167 496.834 181.552 495.637 179.515 493.713C177.478 491.79 176.132 489.248 175.686 486.481C175.637 486.185 168.99 486.364 168.274 486.747C167.458 487.198 166.964 488.317 166.501 489.077C165.772 490.301 165.09 491.556 164.456 492.842Z" fill="black"/>
<path d="M175.482 494.807C175.055 495.641 174.683 496.502 174.37 497.385C173.536 499.857 173.413 502.447 173.295 505.025C173.238 505.521 173.284 506.024 173.431 506.502C173.783 507.429 174.809 507.899 175.766 508.159C179.775 509.234 184.006 508.22 188.12 507.85C192.234 507.479 196.317 507.751 200.289 506.854C200.879 506.735 201.448 506.527 201.975 506.236C202.984 505.582 203.736 504.599 204.106 503.455C204.226 503.162 204.307 502.854 204.347 502.54C204.477 501.186 203.297 500.006 202.012 499.561C200.728 499.116 199.325 499.19 197.973 499.048C195.188 498.762 192.575 497.565 190.538 495.643C188.501 493.721 187.154 491.181 186.706 488.416C186.656 488.119 180.01 488.293 179.293 488.676C178.472 489.127 177.978 490.246 177.514 491.006C176.81 492.261 176.118 493.522 175.482 494.807Z" fill="#A26565"/>
<path d="M204.224 429.145C204.31 442.503 200.431 455.557 195.879 468.087C194.075 473.056 192.162 477.983 190.14 482.866C188.942 485.759 187.589 488.973 188.874 491.828C185.168 490.419 181.4 489.591 177.502 490.24C178.984 487.211 178.842 483.688 178.91 480.35C179.036 475.776 179.524 471.218 180.368 466.721C181.676 459.875 183.919 453.243 187.033 447.009C187.663 445.694 188.097 444.295 188.324 442.855C188.831 439.678 188.435 436.414 187.774 433.268C186.352 426.319 183.65 419.695 179.806 413.736L179.769 414.131C179.538 416.119 179.204 418.094 178.768 420.047C177.897 424.182 176.878 428.323 177.033 432.483C177.194 436.894 176.921 441.31 176.217 445.668C175.991 447.379 175.544 449.053 174.889 450.65C174.463 451.608 173.907 452.504 173.573 453.499C173.24 454.644 173.065 455.83 173.055 457.022C172.56 467.079 173.055 477.29 175.105 487.149C171.665 486.877 168.224 487.873 165.148 489.418C162.743 482.361 160.985 475.098 159.898 467.722C158.557 458.998 158.829 450.102 160.701 441.477C161.284 438.6 161.502 435.662 161.349 432.73C161.084 426.889 159.651 421.178 158.224 415.504L156.049 406.85C155.02 402.729 153.99 398.627 152.961 394.543C152.275 391.817 151.583 389.03 151.8 386.223C151.95 384.684 152.274 383.166 152.763 381.699C154.305 376.708 156.612 371.987 159.601 367.705C171.504 368.372 183.549 367.26 195.428 366.345C196.004 366.231 196.601 366.332 197.108 366.629C197.513 367.041 197.754 367.586 197.787 368.162L202.253 393.505C202.976 397.027 203.4 400.604 203.52 404.198C203.52 407.783 202.964 411.356 203.099 414.935C203.285 419.756 204.199 424.318 204.224 429.145Z" fill="#454B69"/>
<path opacity="0.1" d="M179.781 414.131C179.551 416.119 179.217 418.094 178.781 420.047C176.193 415.565 173.4 411.195 171.016 406.603C170.398 405.422 169.818 404.223 169.231 403.024L167.471 399.439C167.143 398.765 166.816 398.091 166.519 397.405C166.037 396.419 165.666 395.383 165.414 394.315C166.278 394.154 168.416 396.49 169.058 397.102C170.368 398.401 171.606 399.771 172.764 401.206C174.171 402.802 175.464 404.496 176.631 406.275C178.126 408.692 179.192 411.35 179.781 414.131Z" fill="black"/>
<path d="M189.695 291.182C189.695 291.182 183.086 301.721 184.309 303.927C185.532 306.134 163.493 301.968 163.493 301.968C163.493 301.968 175.495 291.429 174.265 287.016C173.036 282.602 189.695 291.182 189.695 291.182Z" fill="#EFB7B9"/>
<path d="M183.821 294.371C192.073 294.371 198.763 287.677 198.763 279.419C198.763 271.161 192.073 264.467 183.821 264.467C175.569 264.467 168.879 271.161 168.879 279.419C168.879 287.677 175.569 294.371 183.821 294.371Z" fill="#EFB7B9"/>
<path d="M189.918 302.234C188.318 300.012 186.147 298.265 183.636 297.177C182.189 296.659 180.692 296.29 179.17 296.077L173.209 295.026C171.751 294.767 170.188 294.526 168.83 295.125C168.142 295.478 167.517 295.939 166.976 296.491C164.907 298.414 162.9 300.521 160.299 301.634C159.589 301.937 158.848 302.159 158.137 302.462C155.228 303.699 153.053 306.332 151.824 309.262C150.527 312.315 150.49 315.634 150.589 318.954C150.587 320.099 150.701 321.243 150.929 322.366C151.226 323.435 151.604 324.481 152.059 325.493C152.88 327.66 153.569 329.875 154.122 332.126C155.666 338.039 156.951 344.014 157.977 350.051C158.064 350.916 158.317 351.755 158.724 352.523C159.3 353.292 159.997 353.962 160.787 354.508C161.414 355.023 161.991 355.596 162.51 356.22C162.769 356.475 162.962 356.789 163.073 357.135C163.264 358.025 162.455 358.791 161.837 359.44C160.508 360.797 159.547 362.472 159.045 364.305C158.735 364.681 158.577 365.159 158.6 365.646C158.729 365.985 158.778 366.349 158.742 366.709C158.621 367.037 158.429 367.335 158.18 367.581C157.895 367.952 157.693 368.381 157.586 368.837C157.48 369.293 157.472 369.767 157.563 370.226C162.193 372.239 167.148 373.399 172.19 373.651C173.425 373.712 174.661 373.712 175.896 373.861C176.773 373.972 177.638 374.151 178.515 374.256C179.788 374.376 181.067 374.409 182.345 374.355C188.997 374.219 195.841 374.052 201.951 371.413C202.525 368.279 201.283 365.084 200.505 361.993C199.27 357.048 198.961 351.986 198.034 346.998C197.417 343.592 196.49 340.235 195.965 336.805C195.44 333.374 195.347 329.82 196.262 326.482C197.095 323.528 197.349 320.511 198.213 317.563C199.078 314.614 199.684 311.419 198.708 308.501C197.472 304.891 193.723 302.03 189.918 302.234Z" fill="#6C63FF"/>
<path d="M197.256 271.489C197.985 268.837 196.552 266.074 194.847 263.917C192.994 261.599 190.634 259.51 187.737 258.929C185.384 258.453 182.944 259.028 180.547 258.836C178.429 258.669 176.39 257.903 174.284 257.6C172.373 257.394 170.442 257.466 168.552 257.816C166.758 258.083 165.004 258.573 163.332 259.275C156.97 262.1 153.245 269.06 152.38 275.964C151.515 282.868 153.029 289.828 154.536 296.621L155.901 302.765C157.322 309.163 158.742 315.585 159.119 322.125C159.496 328.664 158.792 335.377 156.105 341.348C164.795 336.677 171.528 329.049 175.087 319.844C176.05 317.316 176.767 314.689 177.842 312.204C178.762 310.065 179.942 308.038 180.757 305.856C181.679 303.393 182.121 300.777 182.061 298.148C182.011 296.17 181.684 294.204 181.739 292.227C181.795 290.249 182.302 288.19 183.667 286.756C184.902 285.489 186.601 284.902 188.164 284.08C190.624 282.815 192.773 281.021 194.458 278.826C195.44 277.54 195.496 276.971 195.743 275.513C195.99 274.054 196.873 272.892 197.256 271.489Z" fill="#A26565"/>
<path d="M197.275 383.806C197.429 385.346 197.151 386.897 197.485 388.424C197.738 389.561 198.325 390.587 198.671 391.7C199.013 392.984 199.189 394.308 199.196 395.637C199.245 396.75 199.159 398.11 198.17 398.629C197.738 398.858 197.219 398.858 196.768 399.055C196.317 399.253 195.934 399.791 196.194 400.211C196.453 400.631 196.898 400.564 197.305 400.644C197.713 400.724 198.152 401.145 197.923 401.484C197.83 401.596 197.705 401.676 197.565 401.713C197.152 401.84 196.761 402.028 196.404 402.27C196.229 402.397 196.092 402.569 196.008 402.769C195.925 402.968 195.897 403.187 195.928 403.401C195.953 403.503 196.001 403.598 196.068 403.68C196.135 403.761 196.219 403.826 196.315 403.87C196.41 403.914 196.515 403.936 196.62 403.934C196.725 403.932 196.829 403.906 196.922 403.858C196.741 404.246 196.642 404.667 196.632 405.094C198.213 405.774 199.986 404.884 201.469 404.025C202.11 403.667 202.729 403.271 203.322 402.838C204.521 401.917 205.477 400.716 206.106 399.34C206.734 397.964 207.017 396.455 206.929 394.945C206.859 394.186 206.741 393.433 206.577 392.689C206.349 391.393 206.046 390.111 205.669 388.85C205.243 387.521 204.662 386.254 204.162 384.95C203.099 382.175 202.414 379.269 201.45 376.457C201.386 376.165 201.222 375.905 200.987 375.721C200.774 375.617 200.537 375.572 200.301 375.592C199.22 375.535 198.136 375.635 197.083 375.888C196.465 376.074 195.409 376.506 195.119 377.125C194.828 377.743 195.292 378.262 195.57 378.775C196.458 380.326 197.036 382.035 197.275 383.806Z" fill="#EFB7B9"/>
<path opacity="0.1" d="M196.268 308.699C196.585 309.024 196.851 309.395 197.058 309.799C199.183 313.663 199.208 318.28 199.307 322.687C199.418 327.632 199.69 332.577 199.962 337.553L200.771 352.388C200.851 353.803 200.925 355.219 201.129 356.622C202.08 356.863 202.117 358.099 202.012 359.094C201.327 365.139 199.628 371.364 201.395 377.18C201.463 377.479 201.605 377.755 201.808 377.984C200.911 377.702 199.952 377.69 199.047 377.947C198.164 378.132 197.312 378.46 196.422 378.664C195.298 378.917 194.025 379.028 193.26 379.9C192.391 377.287 191.7 374.619 191.19 371.914C190.77 369.441 190.653 366.895 189.652 364.608C189.251 363.687 188.707 362.834 188.213 361.95C185.625 357.326 184.352 352.103 183.111 346.948C182.554 344.504 182.42 341.983 182.715 339.494C182.895 338.358 182.998 337.212 183.024 336.063C182.949 334.85 182.79 333.644 182.549 332.453C182.024 328.958 182.271 325.391 183.271 322.001C184.198 318.855 185.013 315.542 186.978 312.896C188.942 310.251 192.988 308.742 196.268 308.699Z" fill="black"/>
<path d="M197.003 308.205C197.32 308.532 197.587 308.905 197.793 309.311C199.918 313.168 199.943 317.792 200.042 322.199C200.153 327.144 200.425 332.089 200.697 337.033L201.506 351.868C201.586 353.284 201.66 354.699 201.864 356.102C202.815 356.343 202.852 357.58 202.741 358.575C202.062 364.62 200.363 370.838 202.123 376.661C202.192 376.959 202.334 377.236 202.537 377.464C201.64 377.183 200.681 377.17 199.776 377.427C198.893 377.613 198.041 377.94 197.151 378.138C196.027 378.398 194.754 378.503 193.988 379.374C193.123 376.75 192.438 374.069 191.938 371.351C191.518 368.879 191.4 366.338 190.4 364.051C189.965 363.142 189.485 362.254 188.96 361.393C186.366 356.77 185.1 351.541 183.858 346.386C183.301 343.942 183.167 341.42 183.463 338.931C183.928 336.601 183.871 334.196 183.296 331.891C182.771 328.398 183.018 324.832 184.019 321.445C184.945 318.298 185.761 314.985 187.725 312.34C189.689 309.694 193.723 308.254 197.003 308.205Z" fill="#6C63FF"/>
<g opacity="0.1">
<path opacity="0.1" d="M194.847 263.917C192.994 261.599 190.634 259.51 187.737 258.929C185.384 258.453 182.944 259.028 180.547 258.836C178.429 258.669 176.39 257.903 174.284 257.6C172.373 257.394 170.442 257.466 168.552 257.816C166.758 258.083 165.004 258.573 163.332 259.275C162.429 259.68 161.566 260.17 160.756 260.74C162.245 260.161 163.792 259.746 165.37 259.503C167.258 259.153 169.187 259.081 171.096 259.287C173.209 259.559 175.241 260.319 177.366 260.486C179.757 260.678 182.197 260.109 184.556 260.579C187.453 261.16 189.825 263.255 191.66 265.573C193.371 267.724 194.798 270.487 194.075 273.145C193.692 274.542 192.802 275.766 192.562 277.206C192.321 278.647 192.259 279.234 191.271 280.519C190.003 282.168 188.471 283.595 186.737 284.741C187.212 284.519 187.7 284.296 188.164 284.055C190.624 282.79 192.773 280.996 194.458 278.801C195.44 277.515 195.496 276.947 195.743 275.488C195.99 274.029 196.873 272.83 197.256 271.427C197.985 268.837 196.552 266.074 194.847 263.917Z" fill="black"/>
<path opacity="0.1" d="M183.667 286.793C183.922 286.528 184.202 286.286 184.501 286.07C183.074 286.762 181.573 287.368 180.479 288.543C179.114 289.97 178.626 292.035 178.552 294.013C178.478 295.991 178.83 297.956 178.873 299.928C178.934 302.559 178.492 305.178 177.57 307.642C176.755 309.824 175.575 311.845 174.654 313.99C173.586 316.463 172.869 319.096 171.906 321.624C168.818 329.605 163.334 336.433 156.21 341.169C156.173 341.249 156.142 341.336 156.105 341.416C164.795 336.745 171.528 329.118 175.087 319.912C176.05 317.384 176.767 314.757 177.842 312.272C178.762 310.133 179.942 308.106 180.757 305.924C181.679 303.461 182.121 300.845 182.061 298.216C182.011 296.238 181.684 294.272 181.739 292.294C181.795 290.317 182.302 288.227 183.667 286.793Z" fill="black"/>
</g>
<defs>
<linearGradient id="paint0_linear" x1="177.082" y1="508.641" x2="177.082" y2="255.275" gradientUnits="userSpaceOnUse">
<stop stop-color="#808080" stop-opacity="0.25"/>
<stop offset="0.54" stop-color="#808080" stop-opacity="0.12"/>
<stop offset="1" stop-color="#808080" stop-opacity="0.1"/>
</linearGradient>
</defs>
</svg>
